<svg width="88" height="68" viewBox="0 0 88 68" fill="none" xmlns="http://www.w3.org/2000/svg">
<path d="M87.2503 67.1526C77.953 67.6354 73.6116 67.0974 70.141 64.7C60.5583 58.0781 55.1983 51.0245 47.6183 40.6765C46.7036 42.7391 45.7103 44.7683 44.6223 46.7437C45.8663 48.2375 47.0396 49.8197 48.1676 51.3943L48.4636 51.8084L48.745 52.2068C53.2023 58.5885 58.1863 63.6115 65.1756 67.1807C47.2943 68.0979 49.4143 64.6224 39.9476 54.0073C39.2743 54.8948 38.573 55.7604 37.837 56.5979C34.037 60.9333 29.2636 64.65 23.6676 66.2964C19.1716 67.6182 14.421 67.4979 10.113 65.5802C6.43697 63.9427 3.42097 61.1177 1.6063 57.5245C-1.38037 51.6073 0.0156392 44.4432 3.99697 39.3401C5.94897 36.8385 8.48231 34.8391 11.3863 33.5547C14.6196 32.1251 18.1143 31.6552 21.621 32.0437C28.0476 32.7552 33.869 36.2891 38.637 40.5307C39.953 37.8203 41.069 34.9964 42.0583 32.1552C38.6196 26.6937 35.3423 21.1183 32.3116 15.4183C31.6916 16.8213 31.0396 18.2104 30.3543 19.5833L30.3396 19.6151L30.321 19.6453C25.0996 28.4521 23.945 30.0557 16.6223 29.3355L14.8543 29.25L15.8876 27.812C18.485 24.2011 20.9583 20.5213 22.9583 16.5396C25.0196 12.438 26.521 8.1276 27.885 3.75307L29.057 1.97816e-06L29.953 0.245868C31.7956 0.750534 33.4396 1.7776 34.717 3.19734C36.253 4.9036 36.841 6.41307 37.861 8.39894C40.1636 12.8833 42.637 17.2844 45.2316 21.6088C46.693 16.0459 47.9103 10.4027 49.0156 4.7636L49.257 3.5396L50.3796 4.0828C51.1303 4.44534 51.9543 5.06613 52.565 5.6188C54.0023 6.91973 55.0636 8.55467 55.5396 10.4448C56.069 12.5412 55.7303 13.8656 55.3023 15.8989C54.2156 21.0573 52.8943 26.1817 51.245 31.1907C60.5823 45.4541 71.377 59.9698 87.2503 67.1526ZM34.4076 47.7104C30.7036 44.1484 25.9116 40.7697 20.7223 40.1953C18.6596 39.9667 16.5983 40.2203 14.6943 41.0625C13.0276 41.7995 11.5716 42.9443 10.4516 44.3807C8.42631 46.9755 7.3703 50.7527 8.92497 53.8323C9.88897 55.7406 11.4996 57.2302 13.4503 58.099C15.9583 59.2161 18.7516 59.1984 21.3556 58.4323C25.4156 57.238 28.929 54.3349 31.6756 51.2027C32.649 50.0912 33.5583 48.9208 34.4076 47.7104Z" fill="#ED1C24"/>
</svg>
