<svg width="19" height="19" viewBox="0 0 19 19" fill="none" xmlns="http://www.w3.org/2000/svg">
<path d="M16.1542 2.98262C14.3772 1.25996 12.0107 0.3125 9.49576 0.3125C4.30469 0.3125 0.0805804 4.39766 0.0805804 9.41797C0.0805804 11.0217 0.51317 12.5885 1.33594 13.9707L0 18.6875L4.99174 17.4201C6.36585 18.1461 7.91384 18.5275 9.49152 18.5275H9.49576C14.6826 18.5275 19 14.4424 19 9.42207C19 6.98984 17.9312 4.70527 16.1542 2.98262ZM9.49576 16.9936C8.08772 16.9936 6.70937 16.6285 5.50915 15.9395L5.225 15.7754L2.26473 16.526L3.05357 13.7328L2.86696 13.4457C2.08237 12.2398 1.67098 10.8494 1.67098 9.41797C1.67098 5.24668 5.18259 1.85059 9.5 1.85059C11.5908 1.85059 13.5545 2.63809 15.0304 4.06953C16.5062 5.50098 17.4138 7.4 17.4096 9.42207C17.4096 13.5975 13.8089 16.9936 9.49576 16.9936ZM13.7877 11.3252C13.5545 11.2104 12.3967 10.6607 12.1804 10.5869C11.9641 10.509 11.8071 10.4721 11.6502 10.7018C11.4933 10.9314 11.0437 11.44 10.9038 11.5959C10.7681 11.7477 10.6281 11.7682 10.3949 11.6533C9.01228 10.9848 8.10469 10.4598 7.19286 8.94629C6.95112 8.54434 7.4346 8.57305 7.88415 7.70352C7.96049 7.55176 7.92232 7.42051 7.86295 7.30566C7.80357 7.19082 7.33281 6.07109 7.13772 5.61582C6.94688 5.17285 6.75179 5.23438 6.60759 5.22617C6.47187 5.21797 6.31495 5.21797 6.15804 5.21797C6.00112 5.21797 5.74665 5.27539 5.53036 5.50098C5.31406 5.73066 4.70759 6.28027 4.70759 7.4C4.70759 8.51973 5.55156 9.60254 5.66607 9.7543C5.78482 9.90606 7.32433 12.2029 9.68661 13.1914C11.1795 13.8148 11.7647 13.8682 12.5112 13.7615C12.965 13.6959 13.9022 13.2119 14.0973 12.6787C14.2924 12.1455 14.2924 11.6902 14.233 11.5959C14.1779 11.4934 14.021 11.4359 13.7877 11.3252Z" fill="#3A9332"/>
</svg>
